<?xml version="1.0" standalone="no"?>
<svg viewBox="0 0 200 200" xmlns="http://www.w3.org/2000/svg">
  <path fill="#17706C" d="M33,-50.7C46.7,-49.3,64.5,-48.4,68.3,-40C72.1,-31.7,62,-15.8,61.1,-0.5C60.3,14.8,68.7,29.7,64.3,37.1C59.9,44.5,42.8,44.4,29.9,49.5C17.1,54.7,8.5,65,-4,71.9C-16.5,78.7,-33,82.2,-41.1,74.3C-49.2,66.5,-49,47.3,-50.1,33.1C-51.1,18.8,-53.4,9.4,-55.5,-1.2C-57.7,-11.9,-59.6,-23.7,-55.4,-32.4C-51.1,-41,-40.5,-46.5,-30.3,-49.9C-20,-53.4,-10,-54.8,-0.2,-54.5C9.7,-54.2,19.3,-52.2,33,-50.7Z" transform="translate(100 100)" />
</svg>
